<?xml version="1.0" encoding="UTF-8" standalone="no"?>
<svg
   version="1.1"
   viewBox="0 0 779964.44 184422.31"
   id="svg48"
   sodipodi:docname="1024.png.svg"
   width="779964.44"
   height="184422.31"
   xmlns:inkscape="http://www.inkscape.org/namespaces/inkscape"
   xmlns:sodipodi="http://sodipodi.sourceforge.net/DTD/sodipodi-0.dtd"
   xmlns="http://www.w3.org/2000/svg"
   xmlns:svg="http://www.w3.org/2000/svg">
  <defs
     id="defs48" />
  <sodipodi:namedview
     id="namedview48"
     pagecolor="#ffffff"
     bordercolor="#000000"
     borderopacity="0.25"
     inkscape:showpageshadow="2"
     inkscape:pageopacity="0.0"
     inkscape:pagecheckerboard="0"
     inkscape:deskcolor="#d1d1d1"
     showgrid="false" />
  <path
     fill="#ffdf5c"
     d="m -128720.41,-421195.28 q -0.1,-0.43 -0.51,-0.45 a 0.39,0.39 0 0 0 -0.41,0.39 v 0.53 q 0,0.54 -0.52,0.72 -0.49,0.16 -0.47,0.67 0,0.14 -0.1,0.26 -0.24,0.31 -0.6,0.19 -0.27,-0.1 -0.32,0.2 -0.11,0.7 -0.83,0.91 -0.48,0.14 -0.76,0.55 l -2.44,3.47 q -0.17,0.23 -0.18,0.52 0,0.28 -0,0.55 -0,0.26 -0.17,0.47 -2.32,3.29 -4.29,6.8 -2.04,3.64 -4.15,6.75 -7.4,10.92 -14.4,22.1 -5.84,9.32 -9.34,14.62 -4.73,7.17 -9.56,14.49 -10.18,15.51 -20.34,31.03 c -1.77,2.69 -3.26,5.54 -4.87,8.34 q -0.28,0.48 -0.83,0.44 c -1.09,-0.1 -2.17,-0.35 -3.27,-0.35 q -109.97,-0.17 -219.91,0 l -123.55,-0.1 q -0.77,0 -1.04,-0.72 -2.91,-7.68 -6.83,-14.79 -6.68,-12.11 -14.15,-26.62 c -5.99,-11.63 -12.53,-23.37 -18.69,-35.49 -2.85,-5.63 -6.21,-11.26 -9.26,-16.93 l -2.32,-4.79 q -0.24,-0.51 -0.8,-0.51 l -26.65,0.1 -28.98,-0.14 q -0.56,-0.5 -0.55,-0.74 0.15,-19.79 0,-39.73 l 77.96,0.19 q 0.57,0 0.62,0.56 0.25,2.83 0.68,3.81 c 2.57,5.8 6.11,11.61 8.83,16.8 q 14.78,28.3 30.38,57.71 4.67,8.8 7.21,12.82 l 6.81,13.73 q 0.92,1.85 2.99,1.82 9.9,-0.15 19.82,-0.1 1.05,0 1.72,-0.61 0,0.28 0.29,0.48 0.18,0.13 0.51,0.13 14.02,-0 28.41,-0 l 35.98,-0.1 22.7,0.1 q 23.02,0 45.63,0.1 1.01,0 1.67,-0.63 -0.1,0.19 -0.1,0.36 0,0.34 0.37,0.33 15.54,-0.26 30.86,0 0.2,0 0.34,-0.14 0.19,-0.21 0.11,-0.53 l 0.16,0.29 a 0.56,0.58 76 0 0 0.5,0.29 q 17.27,0 34.54,-0.14 0.32,-0 0.78,-0.46 0.1,0.43 0.25,0.55 0,0 0.48,0 33.51,-0.1 67.98,0 a 2.87,2.88 14 0 0 2.54,-1.53 q 1.65,-3.1 3.84,-6.44 10.15,-15.44 20.28,-30.68 0.26,-0.4 0.11,-1.38 0.61,-0.1 0.76,-0.28 9.56,-14.35 18.74,-28.98 l 34.6,-52.53 q 0.62,-0.94 -0.34,-1.53 l -7.78,-4.78 a 0.31,0.31 0 0 1 0.1,-0.55 l 45.97,-17.29 a 1.54,1.55 77.4 0 1 2.09,1.32 c 0.79,9.88 1.17,20.01 2.01,29.74 q 0.66,7.64 1.11,16.05 0.1,1.34 -0.21,2.76 -0.17,0.84 -0.88,0.36 l -6.29,-4.22 a 1.13,1.13 0 0 0 -1.58,0.33 z"
     id="path37" />
  <path
     fill="#ff4c1e"
     d="m -129251.49,-421222.54 q 0.13,19.94 -0,39.73 -0,0.24 0.55,0.74 -0.58,-0.22 -0.46,0.22 -0.41,-0.36 -0.77,-0.36 -17.7,-0.2 -35.66,0.1 l -0.19,-39.79 q 0,-0.5 0.5,-0.5 z"
     id="path38" />
  <path
     fill="#ffffff"
     d="m -129424.49,-421126.84 -0,43.05 a 0.72,0.72 0 0 1 -0.72,0.72 l -34.56,0 a 0.86,0.86 0 0 1 -0.86,-0.86 v -132.17 q 0,-1 1,-1 24.52,0 48.7,0 c 22.08,0 42.17,9.14 46.63,32.48 2.27,11.84 0.52,26.84 -6.02,37 q -7.75,12.03 -22.43,16.81 c -9.98,3.26 -20.61,3.34 -30.92,3.13 q -0.8,-0 -0.8,0.79 z m 1.11,-30.3 c 9.38,0.46 18.62,-0.7 22.1,-10.11 3.43,-9.25 0.69,-19.39 -10.55,-20.45 q -6.05,-0.57 -12.32,-0.11 a 0.38,0.37 88.4 0 0 -0.35,0.38 l 0,29.14 q 0,1.1 1.1,1.15 z"
     id="path39" />
  <path
     fill="#ffffff"
     d="m -129094.47,-421115.81 q -0.67,0.62 -1.72,0.61 -9.92,-0 -19.82,0.1 -2.07,0 -2.99,-1.82 l -6.81,-13.73 q -0.5,-8.27 -0.57,-15.66 -0.34,-34.27 -0.27,-70.01 0,-0.74 0.74,-0.74 l 30.76,0 a 0.66,0.66 0 0 1 0.66,0.66 z"
     id="path40" />
  <path
     fill="#ffffff"
     d="m -128959.28,-421115.79 q -0.66,0.63 -1.67,0.63 -22.61,-0 -45.63,-0.1 7.54,-2.93 11.28,-9.01 c 6.21,-10.11 7.19,-23.37 6.01,-35.38 -1.58,-16.07 -9.44,-27.65 -26.75,-28.22 q -5.77,-0.2 -12.6,-0.11 a 0.67,0.67 0 0 0 -0.66,0.67 l 0,71.96 -35.98,0.1 v -100.78 q 0,-1.02 1.02,-1.02 27.69,-0.1 52.74,0.1 9.31,0.1 21.74,4.24 c 20.18,6.79 32.88,22.02 36.66,42.47 q 3,16.2 0.39,32.95 -1.83,11.78 -6.57,21.53 z"
     id="path41" />
  <path
     fill="#ffffff"
     d="m -128851.06,-421217.13 2.66,0.11 a 0.42,0.42 0 0 1 0.4,0.42 l -0,27.54 q 0,0.91 -0.91,0.91 l -41.77,0 q -0.96,0 -0.96,0.95 l -0,19.37 a 0.75,0.75 0 0 0 0.76,0.75 l 39.02,-0 q 0.56,0 0.56,0.56 l 0.1,27.63 q 0,0.81 -0.82,0.81 l -38.35,0 a 1.19,1.19 0 0 0 -1.19,1.19 l -0,21.09 q -0.46,0.45 -0.78,0.46 -17.27,0.15 -34.54,0.14 a 0.56,0.58 76 0 1 -0.5,-0.29 l -0.16,-0.29 v -100.05 q 0,-1.23 1.23,-1.23 z"
     id="path42" />
  <path
     fill="#ffffff"
     d="m -128776.69,-421184.49 q -9.18,14.63 -18.74,28.98 -0.15,0.23 -0.76,0.28 l -38.81,-60.78 a 0.67,0.67 0 0 1 0.56,-1.03 l 37.7,-0 a 2.04,2.06 75.1 0 1 1.78,1.02 z"
     id="path43" />
  <path
     fill="#ffffff"
     d="m -128720.41,-421195.28 -28.16,45.23 a 2.12,2.12 0 0 0 0.1,2.33 l 44.23,63.67 a 0.62,0.63 72.7 0 1 -0.52,0.98 l -39.65,0 a 1.87,1.86 73.9 0 1 -1.58,-0.88 l -23.43,-37.61 q 4.83,-7.32 9.56,-14.49 3.5,-5.3 9.34,-14.62 7,-11.18 14.4,-22.1 2.11,-3.11 4.15,-6.75 1.97,-3.51 4.29,-6.8 0.16,-0.21 0.17,-0.47 0,-0.27 0,-0.55 0,-0.29 0.18,-0.52 l 2.44,-3.47 q 0.28,-0.41 0.76,-0.55 0.72,-0.21 0.83,-0.91 0.1,-0.29 0.32,-0.2 0.36,0.12 0.6,-0.19 0.1,-0.12 0.1,-0.26 -0,-0.51 0.47,-0.67 0.52,-0.18 0.52,-0.72 v -0.53 a 0.39,0.39 0 0 1 0.41,-0.39 q 0.42,0 0.51,0.45 z"
     id="path44" />
  <path
     fill="#ffffff"
     d="m -129251.42,-421181.85 -0,98.06 a 0.73,0.73 0 0 1 -0.73,0.73 l -35.04,0 a 0.56,0.56 0 0 1 -0.56,-0.56 l -0.1,-98.54 q 17.96,-0.26 35.66,-0.1 0.36,0 0.77,0.36 z"
     id="path47" />
  <path
     fill="#ffffff"
     d="m -129192.21,-421176.69 c 1.44,7.64 1.49,17.15 1.83,22.88 q 0.43,7.12 0.42,14.25 -0,28.05 -0.1,55.61 0,0.89 -0.89,0.89 l -30.33,0 a 0.71,0.71 0 0 1 -0.71,-0.71 l -0,-98.17 26.65,-0.1 q 0.56,0 0.8,0.51 z"
     id="path48" />
  <rect
     fill="#ffffff"
     x="-129348.32"
     y="-421115.69"
     width="37.98"
     height="34.5"
     rx="15.81"
     id="rect48" />
</svg>
